<svg xmlns="http://www.w3.org/2000/svg" viewBox="0 0 180 180" fill="none">
  <rect width="180" height="180" rx="40" fill="#0C0A15"/>
  <circle cx="62" cy="62" r="17" fill="#E85D26"/>
  <path d="M45 124 Q45 90 62 74 L79 74 Q79 90 79 124 Z" fill="#E85D26" opacity="0.9"/>
  <path d="M79 68 Q90 52 93 42" stroke="#FDB813" stroke-width="4" stroke-linecap="round"/>
  <line x1="93" y1="42" x2="107" y2="34" stroke="#FDB813" stroke-width="2.5" opacity="0.6"/>
  <line x1="95" y1="48" x2="112" y2="42" stroke="#FDB813" stroke-width="2.5" opacity="0.5"/>
  <circle cx="118" cy="74" r="14" fill="#1DD1A1"/>
  <path d="M104 134 Q104 102 118 86 L132 86 Q132 102 132 134 Z" fill="#1DD1A1" opacity="0.8"/>
  <path d="M110 98 Q118 90 126 98" stroke="#1DD1A1" stroke-width="4" stroke-linecap="round"/>
  <circle cx="96" cy="62" r="4" fill="#FDB813" opacity="0.7"/>
  <circle cx="105" cy="68" r="3" fill="#FDB813" opacity="0.5"/>
  <text x="25" y="158" font-family="monospace" font-size="24" fill="#E85D26" opacity="0.5">&lt;</text>
  <text x="140" y="158" font-family="monospace" font-size="24" fill="#E85D26" opacity="0.5">/&gt;</text>
</svg>
